<svg xmlns="http://www.w3.org/2000/svg" viewBox="0 0 209.838 126.504"><g fill-rule="evenodd"><path stroke-width="2.91007" d="M43.35212674 4.844406c-4.341807 0-7.924338 2.048786-8.630874 4.756782h-13.065498c-6.423777 0-11.594858 5.21133-11.594858 11.6851v78.21647c0 6.47376 5.171081 11.68511 11.594858 11.68511h6.820255a18.626607 18.771588 0 0 0 17.977768 13.86089 18.626607 18.771588 0 0 0 17.976923-13.86089h6.172228a18.626607 18.771588 0 0 0 17.976941 13.86089 18.626607 18.771588 0 0 0 17.97689-13.86089h46.47426a18.626607 18.771588 0 0 0 17.97778 13.86089 18.626607 18.771588 0 0 0 17.97692-13.86089h12.84475c3.63031.00002 6.55249-5.21132 6.55249-11.68511v-41.77722c0-6.47375-2.92218-11.68592-6.55249-11.68592h-15.14475v-6.6881c0-.0306-.00094-.0607-.00094-.0913h.2325c2.47897 0 4.47493-2.60521 4.47493-5.84211v-11.50321c0-3.23689-1.99596-5.842979-4.47493-5.842979h-31.81674c-2.47897 0-4.47492 2.606089-4.47492 5.842979v11.5032c0 3.2369 1.99595 5.84212 4.47492 5.84212h.23252c-.00019.0306-.00094.0607-.00094.0913v6.6881h-44.4677v-24.75334c0-6.473776-5.17191-11.68509-11.595652-11.68509h-11.833024c-.706536-2.707996-4.288237-4.756782-8.630045-4.756782zm17.109817 19.285102a17.426512 17.562153 0 0 1 17.427124 17.56194 17.426512 17.562153 0 0 1-8.659429 15.17801l5.041537 17.36989 4.08376 14.07239h-35.785138l4.083762-14.07239 5.041519-17.37073a17.426512 17.562153 0 0 1-8.659413-15.17717 17.426512 17.562153 0 0 1 17.426278-17.56194z" paint-order="markers fill stroke"/><path stroke-linecap="round" stroke-linejoin="round" stroke-width="5.20606" d="M-2.619733-101.71672a115.26328 116.16043 0 0 1-115.263277 0" style="font-variation-settings:normal" transform="rotate(180 -.00835013 -41.776771)"/></g></svg>
