<?xml version="1.0" encoding="UTF-8" standalone="no"?>
<svg
   xmlns:dc="http://purl.org/dc/elements/1.1/"
   xmlns:cc="http://creativecommons.org/ns#"
   xmlns:rdf="http://www.w3.org/1999/02/22-rdf-syntax-ns#"
   xmlns:svg="http://www.w3.org/2000/svg"
   xmlns="http://www.w3.org/2000/svg"
   xmlns:sodipodi="http://sodipodi.sourceforge.net/DTD/sodipodi-0.dtd"
   xmlns:inkscape="http://www.inkscape.org/namespaces/inkscape"
   viewBox="0 0 6.35 6.35"
   version="1.1"
   id="svg8"
   inkscape:version="1.0.1 (3bc2e813f5, 2020-09-07)"
   sodipodi:docname="Icon.svg">
  <defs
     id="defs2">
    <inkscape:path-effect
       effect="spiro"
       id="path-effect176"
       is_visible="true"
       lpeversion="1" />
    <inkscape:path-effect
       effect="spiro"
       id="path-effect916"
       is_visible="true"
       lpeversion="1" />
    <inkscape:path-effect
       effect="spiro"
       id="path-effect847"
       is_visible="true"
       lpeversion="1" />
    <inkscape:path-effect
       effect="spiro"
       id="path-effect843"
       is_visible="true"
       lpeversion="1" />
  </defs>
  <sodipodi:namedview
     id="base"
     pagecolor="#ffffff"
     bordercolor="#666666"
     borderopacity="1.0"
     inkscape:pageopacity="0.0"
     inkscape:pageshadow="2"
     inkscape:zoom="20.10163"
     inkscape:cx="19.264453"
     inkscape:cy="11.7562"
     inkscape:document-units="mm"
     inkscape:current-layer="layer1"
     inkscape:document-rotation="0"
     showgrid="true"
     units="px"
     width="24mm"
     showguides="false"
     inkscape:snap-page="true"
     inkscape:snap-object-midpoints="true"
     inkscape:snap-center="true"
     inkscape:snap-midpoints="false"
     inkscape:snap-smooth-nodes="true"
     inkscape:snap-intersection-paths="true"
     inkscape:object-paths="true"
     inkscape:snap-grids="false"
     inkscape:object-nodes="true"
     inkscape:window-width="1920"
     inkscape:window-height="1137"
     inkscape:window-x="-8"
     inkscape:window-y="-8"
     inkscape:window-maximized="1"
     inkscape:snap-others="true"
     inkscape:snap-bbox="false"
     inkscape:bbox-paths="true"
     inkscape:bbox-nodes="true"
     inkscape:snap-bbox-edge-midpoints="true"
     inkscape:snap-bbox-midpoints="true"
     inkscape:snap-global="true"
     inkscape:snap-text-baseline="false">
    <inkscape:grid
       type="xygrid"
       id="grid835"
       visible="true"
       enabled="false" />
  </sodipodi:namedview>
  <metadata
     id="metadata5">
    <rdf:RDF>
      <cc:Work
         rdf:about="">
        <dc:format>image/svg+xml</dc:format>
        <dc:type
           rdf:resource="http://purl.org/dc/dcmitype/StillImage" />
        <dc:title />
      </cc:Work>
    </rdf:RDF>
  </metadata>
  <g
     inkscape:label="Шар 1"
     inkscape:groupmode="layer"
     id="layer1">
    <path
       id="rect30"
       style="fill:inherit;fill-opacity:1:evenodd;stroke-width:0.211282;stop-color:inherit"
       d="M 11.814453 2.9511719 C 11.173542 2.9786776 10.557569 3.3160576 10.195312 3.90625 L 4.6328125 12.964844 L 4.4414062 13.279297 L 4 14 C 2.8919998 14 2 14.892 2 16 L 2 19 C 2 20.108 2.8919998 21 4 21 L 15 21 C 16.108 21 17 20.108 17 19 L 17 16 C 17 14.892 16.108 14 15 14 L 14.425781 13.181641 L 13.853516 12.361328 C 13.535755 11.907516 13.6458 11.288464 14.099609 10.970703 L 14.917969 10.396484 L 16.304688 9.4257812 A 3.4999991 3.4999991 0 0 1 16 8 A 3.4999991 3.4999991 0 0 1 16.048828 7.4238281 A 3.4999991 3.4999991 0 0 1 16.064453 7.3417969 A 3.4999991 3.4999991 0 0 1 16.089844 7.2207031 A 3.4999991 3.4999991 0 0 1 16.097656 7.1835938 A 3.4999991 3.4999991 0 0 1 16.115234 7.1152344 A 3.4999991 3.4999991 0 0 1 16.892578 5.6679688 L 12.947266 3.2460938 C 12.593164 3.0287383 12.199 2.934668 11.814453 2.9511719 z M 12.378906 5.3378906 C 12.507304 5.3576003 12.633915 5.4021586 12.751953 5.4746094 L 13.603516 5.9980469 L 15.791016 7.3417969 L 12.132812 9.9042969 C 11.225195 10.539818 11.007055 11.781832 11.642578 12.689453 L 12.558594 14 L 6.3457031 14 L 6.6113281 13.568359 L 6.6699219 13.474609 L 6.9609375 12.998047 L 7.1933594 12.621094 L 10.855469 6.65625 L 11.376953 5.8027344 C 11.594304 5.4486205 11.993713 5.2787616 12.378906 5.3378906 z M 5 16 L 14 16 C 14.554 16 15 16.446 15 17 L 15 18 C 15 18.554 14.554 19 14 19 L 5 19 C 4.4460003 19 4 18.554 4 18 L 4 17 C 4 16.446 4.4460003 16 5 16 z "
       transform="scale(0.26458333)" />
    <circle
       style="font-variation-settings:normal;opacity:1;vector-effect:none;fill:inherit;fill-opacity:1;fill-rule:evenodd;stroke-width:0.413411;stroke-linecap:butt;stroke-linejoin:miter;stroke-miterlimit:4;stroke-dasharray:none;stroke-dashoffset:0;stroke-opacity:1;stop-color:inherit;stop-opacity:1"
       id="circle164"
       cx="5.1593752"
       cy="2.1166666"
       r="0.66145825" />
  </g>
</svg>
