<?xml version="1.0" encoding="UTF-8" standalone="no"?>
<svg
   xmlns:dc="http://purl.org/dc/elements/1.1/"
   xmlns:cc="http://creativecommons.org/ns#"
   xmlns:rdf="http://www.w3.org/1999/02/22-rdf-syntax-ns#"
   xmlns:svg="http://www.w3.org/2000/svg"
   xmlns="http://www.w3.org/2000/svg"
   xmlns:sodipodi="http://sodipodi.sourceforge.net/DTD/sodipodi-0.dtd"
   xmlns:inkscape="http://www.inkscape.org/namespaces/inkscape"
   viewBox="0 0 6.35 6.35"
   version="1.1"
   id="svg8"
   inkscape:version="1.0.1 (3bc2e813f5, 2020-09-07)"
   sodipodi:docname="Pawn.svg">
  <defs
     id="defs2">
    <inkscape:path-effect
       effect="spiro"
       id="path-effect916"
       is_visible="true"
       lpeversion="1" />
    <inkscape:path-effect
       effect="spiro"
       id="path-effect847"
       is_visible="true"
       lpeversion="1" />
    <inkscape:path-effect
       effect="spiro"
       id="path-effect843"
       is_visible="true"
       lpeversion="1" />
  </defs>
  <sodipodi:namedview
     id="base"
     pagecolor="#ffffff"
     bordercolor="#666666"
     borderopacity="1.0"
     inkscape:pageopacity="0.0"
     inkscape:pageshadow="2"
     inkscape:zoom="25.234642"
     inkscape:cx="17.008659"
     inkscape:cy="8.6995959"
     inkscape:document-units="mm"
     inkscape:current-layer="layer1"
     inkscape:document-rotation="0"
     showgrid="true"
     units="px"
     width="24mm"
     showguides="false"
     inkscape:snap-page="true"
     inkscape:snap-object-midpoints="true"
     inkscape:snap-center="false"
     inkscape:snap-midpoints="true"
     inkscape:snap-smooth-nodes="true"
     inkscape:snap-intersection-paths="true"
     inkscape:object-paths="true"
     inkscape:snap-grids="true"
     inkscape:object-nodes="true"
     inkscape:window-width="1920"
     inkscape:window-height="1137"
     inkscape:window-x="-8"
     inkscape:window-y="-8"
     inkscape:window-maximized="1"
     inkscape:snap-others="true">
    <inkscape:grid
       type="xygrid"
       id="grid835"
       visible="true"
       enabled="false"
       dotted="false" />
  </sodipodi:namedview>
  <metadata
     id="metadata5">
    <rdf:RDF>
      <cc:Work
         rdf:about="">
        <dc:format>image/svg+xml</dc:format>
        <dc:type
           rdf:resource="http://purl.org/dc/dcmitype/StillImage" />
        <dc:title></dc:title>
      </cc:Work>
    </rdf:RDF>
  </metadata>
  <g
     inkscape:label="Шар 1"
     inkscape:groupmode="layer"
     id="layer1">
    <path
       style="fill:inherit;fill-rule:evenodd;stroke:inherit;stroke-width:0.529167;stroke-linecap:square;stroke-miterlimit:4;stroke-dasharray:none;stop-color:inherit"
       d="M 1.8520833,5.5562499 Z"
       id="path841"
       inkscape:path-effect="#path-effect843"
       inkscape:original-d="m 1.8520833,5.5562499 c 0,0 0,0 0,0 z" />
    <path
       id="rect14"
       style="fill:inherit;fill-opacity:1;fill-rule:evenodd;stroke-width:0.188976;stop-color:inherit"
       d="M 8.5 9 L 8.5 11 L 9.5 11 L 9.5 15 A 0.50000013 0.50000013 0 0 1 9 15.5 A 2.4999999 2.4999999 0 0 0 6.5 18 L 6.5 20 L 6.5 22 L 17.5 22 L 17.5 20 L 17.5 18 A 2.4999999 2.4999999 0 0 0 15 15.5 A 0.50000013 0.50000013 0 0 1 14.5 15 L 14.5 11 L 15.5 11 L 15.5 9 L 8.5 9 z M 11.5 11 L 12.5 11 L 12.5 15 A 2.4999999 2.4999999 0 0 0 15 17.5 A 0.50000013 0.50000013 0 0 1 15.5 18 L 15.5 20 L 8.5 20 L 8.5 18 A 0.50000013 0.50000013 0 0 1 9 17.5 A 2.4999999 2.4999999 0 0 0 11.5 15 L 11.5 11 z "
       transform="scale(0.26458333)" />
    <circle
       style="font-variation-settings:normal;opacity:1;vector-effect:none;fill:inherit;fill-opacity:1;fill-rule:evenodd;stroke-width:0.330729;stroke-linecap:butt;stroke-linejoin:miter;stroke-miterlimit:4;stroke-dasharray:none;stroke-dashoffset:0;stroke-opacity:1;stop-color:inherit;stop-opacity:1"
       id="path41"
       cx="3.175"
       cy="1.3229166"
       r="0.79374999" />
  </g>
</svg>
