<?xml version="1.0" encoding="UTF-8" standalone="no"?>
<svg
   xmlns:dc="http://purl.org/dc/elements/1.1/"
   xmlns:cc="http://creativecommons.org/ns#"
   xmlns:rdf="http://www.w3.org/1999/02/22-rdf-syntax-ns#"
   xmlns:svg="http://www.w3.org/2000/svg"
   xmlns="http://www.w3.org/2000/svg"
   xmlns:sodipodi="http://sodipodi.sourceforge.net/DTD/sodipodi-0.dtd"
   xmlns:inkscape="http://www.inkscape.org/namespaces/inkscape"
   viewBox="0 0 6.35 6.35"
   version="1.1"
   id="svg8"
   inkscape:version="1.0.1 (3bc2e813f5, 2020-09-07)"
   sodipodi:docname="Pawn.svg">
  <defs
     id="defs2">
    <inkscape:path-effect
       effect="spiro"
       id="path-effect916"
       is_visible="true"
       lpeversion="1" />
    <inkscape:path-effect
       effect="spiro"
       id="path-effect847"
       is_visible="true"
       lpeversion="1" />
    <inkscape:path-effect
       effect="spiro"
       id="path-effect843"
       is_visible="true"
       lpeversion="1" />
  </defs>
  <sodipodi:namedview
     id="base"
     pagecolor="#ffffff"
     bordercolor="#666666"
     borderopacity="1.0"
     inkscape:pageopacity="0.0"
     inkscape:pageshadow="2"
     inkscape:zoom="33.623087"
     inkscape:cx="18.69379"
     inkscape:cy="11.869841"
     inkscape:document-units="mm"
     inkscape:current-layer="layer1"
     inkscape:document-rotation="0"
     showgrid="true"
     units="px"
     width="24mm"
     showguides="false"
     inkscape:snap-page="true"
     inkscape:snap-object-midpoints="false"
     inkscape:snap-center="false"
     inkscape:snap-midpoints="false"
     inkscape:snap-smooth-nodes="true"
     inkscape:snap-intersection-paths="true"
     inkscape:object-paths="true"
     inkscape:snap-grids="true"
     inkscape:object-nodes="true"
     inkscape:window-width="1920"
     inkscape:window-height="1137"
     inkscape:window-x="-8"
     inkscape:window-y="-8"
     inkscape:window-maximized="1">
    <inkscape:grid
       type="xygrid"
       id="grid835"
       visible="true"
       enabled="false" />
  </sodipodi:namedview>
  <metadata
     id="metadata5">
    <rdf:RDF>
      <cc:Work
         rdf:about="">
        <dc:format>image/svg+xml</dc:format>
        <dc:type
           rdf:resource="http://purl.org/dc/dcmitype/StillImage" />
        <dc:title></dc:title>
      </cc:Work>
    </rdf:RDF>
  </metadata>
  <g
     inkscape:label="Шар 1"
     inkscape:groupmode="layer"
     id="layer1">
    <path
       id="path857"
       style="font-variation-settings:normal;opacity:1;vector-effect:none;fill:inherit;fill-opacity:1;fill-rule:evenodd;stroke-width:1.25;stroke-linecap:butt;stroke-linejoin:miter;stroke-miterlimit:4;stroke-dasharray:none;stroke-dashoffset:0;stroke-opacity:1;stop-color:inherit;stop-opacity:1"
       d="M 9 9 L 9 11 L 10 11 L 10 14 A 0.99999995 0.99999995 0 0 1 9 15 A 3 3 0 0 0 8.9492188 15 A 3 3 0 0 0 6 18 L 6 20 L 6 22 L 18 22 L 18 20 L 18 18 A 3 3 0 0 0 15.050781 15 A 3 3 0 0 0 15 15 A 0.99999995 0.99999995 0 0 1 14 14 L 14 11 L 15 11 L 15 9 L 9 9 z M 12 14.037109 A 3 3 0 0 0 14.949219 17 A 3 3 0 0 0 15 17 A 0.99999995 0.99999995 0 0 1 16 18 L 16 20 L 8 20 L 8 18 A 0.99999995 0.99999995 0 0 1 9 17 A 3 3 0 0 0 9.0507812 17 A 3 3 0 0 0 12 14.037109 z "
       transform="scale(0.26458333)" />
    <path
       style="fill:inherit;fill-rule:evenodd;stroke:inherit;stroke-width:0.529167;stroke-linecap:square;stroke-miterlimit:4;stroke-dasharray:none;stop-color:inherit"
       d="M 1.8520833,5.5562499 Z"
       id="path841"
       inkscape:path-effect="#path-effect843"
       inkscape:original-d="m 1.8520833,5.5562499 c 0,0 0,0 0,0 z" />
    <circle
       style="font-variation-settings:normal;opacity:1;vector-effect:none;fill:inherit;fill-opacity:1;fill-rule:evenodd;stroke-width:0.330729;stroke-linecap:butt;stroke-linejoin:miter;stroke-miterlimit:4;stroke-dasharray:none;stroke-dashoffset:0;stroke-opacity:1;stop-color:inherit;stop-opacity:1"
       id="path897"
       cx="3.175"
       cy="1.3229166"
       r="0.79374999" />
  </g>
</svg>
