<?xml version="1.0" encoding="UTF-8" standalone="no"?>
<svg
   xmlns:dc="http://purl.org/dc/elements/1.1/"
   xmlns:cc="http://creativecommons.org/ns#"
   xmlns:rdf="http://www.w3.org/1999/02/22-rdf-syntax-ns#"
   xmlns:svg="http://www.w3.org/2000/svg"
   xmlns="http://www.w3.org/2000/svg"
   xmlns:sodipodi="http://sodipodi.sourceforge.net/DTD/sodipodi-0.dtd"
   xmlns:inkscape="http://www.inkscape.org/namespaces/inkscape"
   viewBox="0 0 6.35 6.35"
   version="1.1"
   id="svg8"
   inkscape:version="1.0.1 (3bc2e813f5, 2020-09-07)"
   sodipodi:docname="PTicons.svg">
  <defs
     id="defs2">
    <inkscape:path-effect
       effect="spiro"
       id="path-effect927"
       is_visible="true"
       lpeversion="1" />
    <inkscape:path-effect
       effect="spiro"
       id="path-effect898"
       is_visible="true"
       lpeversion="1" />
    <inkscape:path-effect
       effect="spiro"
       id="path-effect886"
       is_visible="true"
       lpeversion="1" />
    <inkscape:path-effect
       effect="spiro"
       id="path-effect882"
       is_visible="true"
       lpeversion="1" />
    <inkscape:path-effect
       effect="spiro"
       id="path-effect871"
       is_visible="true"
       lpeversion="1" />
    <inkscape:path-effect
       effect="spiro"
       id="path-effect867"
       is_visible="true"
       lpeversion="1" />
    <inkscape:path-effect
       effect="spiro"
       id="path-effect859"
       is_visible="true"
       lpeversion="1" />
    <inkscape:path-effect
       effect="spiro"
       id="path-effect853"
       is_visible="true"
       lpeversion="1" />
    <inkscape:path-effect
       effect="spiro"
       id="path-effect24"
       is_visible="true"
       lpeversion="1" />
    <inkscape:path-effect
       effect="spiro"
       id="path-effect916"
       is_visible="true"
       lpeversion="1" />
    <inkscape:path-effect
       effect="spiro"
       id="path-effect847"
       is_visible="true"
       lpeversion="1" />
    <inkscape:path-effect
       effect="spiro"
       id="path-effect843"
       is_visible="true"
       lpeversion="1" />
  </defs>
  <sodipodi:namedview
     id="base"
     pagecolor="#ffffff"
     bordercolor="#666666"
     borderopacity="1.0"
     inkscape:pageopacity="0.0"
     inkscape:pageshadow="2"
     inkscape:zoom="25.954613"
     inkscape:cx="12.121147"
     inkscape:cy="11.520489"
     inkscape:document-units="mm"
     inkscape:current-layer="layer1"
     inkscape:document-rotation="0"
     showgrid="true"
     units="px"
     width="24mm"
     showguides="false"
     inkscape:snap-page="true"
     inkscape:snap-object-midpoints="true"
     inkscape:snap-center="true"
     inkscape:snap-midpoints="false"
     inkscape:snap-smooth-nodes="true"
     inkscape:snap-intersection-paths="true"
     inkscape:object-paths="true"
     inkscape:snap-grids="true"
     inkscape:object-nodes="true"
     inkscape:window-width="1920"
     inkscape:window-height="1137"
     inkscape:window-x="-8"
     inkscape:window-y="-8"
     inkscape:window-maximized="1"
     inkscape:snap-others="false"
     inkscape:snap-bbox="false"
     inkscape:bbox-paths="true"
     inkscape:bbox-nodes="true"
     inkscape:snap-nodes="true"
     inkscape:snap-bbox-edge-midpoints="true"
     inkscape:snap-bbox-midpoints="true"
     inkscape:snap-tangential="true"
     inkscape:snap-to-guides="true">
    <inkscape:grid
       type="xygrid"
       id="grid835"
       visible="true"
       enabled="true"
       dotted="false" />
  </sodipodi:namedview>
  <metadata
     id="metadata5">
    <rdf:RDF>
      <cc:Work
         rdf:about="">
        <dc:format>image/svg+xml</dc:format>
        <dc:type
           rdf:resource="http://purl.org/dc/dcmitype/StillImage" />
        <dc:title></dc:title>
      </cc:Work>
    </rdf:RDF>
  </metadata>
  <g
     inkscape:label="Шар 1"
     inkscape:groupmode="layer"
     id="layer1">
    <path
       id="path27"
       style="font-variation-settings:normal;opacity:1;vector-effect:none;fill:inherit;fill-opacity:1;fill-rule:evenodd;stroke-width:1.09375;stroke-linecap:butt;stroke-linejoin:miter;stroke-miterlimit:4;stroke-dasharray:none;stroke-dashoffset:0;stroke-opacity:1;stop-color:inherit;stop-opacity:1"
       d="M 8.9238281 3 A 3.9999999 3.9999999 0 0 0 7 3.5351562 L 8 5.2695312 A 1.9999999 1.9999999 0 0 1 9 5 A 1.9999999 1.9999999 0 0 1 11 7 L 11 7.2929688 A 7.0000003 7.0000003 0 0 0 8.8984375 7 A 7.0000003 7.0000003 0 0 0 3.6367188 9.5 A 7.0000003 7.0000003 0 0 0 3.6367188 18.5 A 7.0000003 7.0000003 0 0 0 12 20.324219 A 7.0000003 7.0000003 0 0 0 20.361328 18.5 A 7.0000003 7.0000003 0 0 0 20.361328 9.5 A 7.0000003 7.0000003 0 0 0 15.099609 7 A 7.0000003 7.0000003 0 0 0 13 7.2910156 L 13 7 A 3.9999999 3.9999999 0 0 0 11 3.5351562 A 3.9999999 3.9999999 0 0 0 8.9238281 3 z M 9.8027344 9.0664062 A 4.9999997 4.9999997 0 0 1 11 9.4179688 L 11 18.582031 A 4.9999997 4.9999997 0 0 1 9.8027344 18.933594 A 9.9999999 9.9999999 0 0 1 8.5 14 A 9.9999999 9.9999999 0 0 1 9.8027344 9.0664062 z M 14.197266 9.0664062 A 9.9999999 9.9999999 0 0 1 15.5 14 A 9.9999999 9.9999999 0 0 1 14.197266 18.933594 A 4.9999997 4.9999997 0 0 1 13 18.583984 L 13 9.4179688 A 4.9999997 4.9999997 0 0 1 14.197266 9.0664062 z M 7.4863281 9.2363281 A 12 12 0 0 0 7.4882812 18.765625 A 4.9999997 4.9999997 0 0 1 4 14 A 4.9999997 4.9999997 0 0 1 7.4863281 9.2363281 z M 16.513672 9.2363281 A 4.9999997 4.9999997 0 0 1 19.998047 14 A 4.9999997 4.9999997 0 0 1 16.513672 18.765625 A 12 12 0 0 0 16.513672 9.2363281 z "
       transform="scale(0.26458333)" />
  </g>
</svg>
