<?xml version="1.0" encoding="UTF-8" standalone="no"?>
<svg
   viewBox="0 0 6.35 6.35"
   version="1.1"
   id="svg8"
   inkscape:version="1.3.2 (091e20ef0f, 2023-11-25)"
   sodipodi:docname="snowglobe.svg"
   xmlns:inkscape="http://www.inkscape.org/namespaces/inkscape"
   xmlns:sodipodi="http://sodipodi.sourceforge.net/DTD/sodipodi-0.dtd"
   xmlns="http://www.w3.org/2000/svg"
   xmlns:svg="http://www.w3.org/2000/svg"
   xmlns:rdf="http://www.w3.org/1999/02/22-rdf-syntax-ns#"
   xmlns:cc="http://creativecommons.org/ns#"
   xmlns:dc="http://purl.org/dc/elements/1.1/">
  <defs
     id="defs2">
    <inkscape:path-effect
       effect="spiro"
       id="path-effect916"
       is_visible="true"
       lpeversion="1" />
    <inkscape:path-effect
       effect="spiro"
       id="path-effect847"
       is_visible="true"
       lpeversion="1" />
    <inkscape:path-effect
       effect="spiro"
       id="path-effect843"
       is_visible="true"
       lpeversion="1" />
  </defs>
  <sodipodi:namedview
     id="base"
     pagecolor="#ffffff"
     bordercolor="#666666"
     borderopacity="1.0"
     inkscape:pageopacity="0.0"
     inkscape:pageshadow="2"
     inkscape:zoom="61.83323"
     inkscape:cx="6.0242689"
     inkscape:cy="4.5687408"
     inkscape:document-units="mm"
     inkscape:current-layer="layer1"
     inkscape:document-rotation="0"
     showgrid="true"
     units="px"
     width="24mm"
     showguides="false"
     inkscape:snap-page="true"
     inkscape:snap-object-midpoints="false"
     inkscape:snap-center="false"
     inkscape:snap-midpoints="false"
     inkscape:snap-smooth-nodes="true"
     inkscape:snap-intersection-paths="true"
     inkscape:object-paths="true"
     inkscape:snap-grids="true"
     inkscape:object-nodes="true"
     inkscape:window-width="1896"
     inkscape:window-height="1152"
     inkscape:window-x="1032"
     inkscape:window-y="8"
     inkscape:window-maximized="1"
     inkscape:snap-global="true"
     inkscape:showpageshadow="2"
     inkscape:pagecheckerboard="0"
     inkscape:deskcolor="#d1d1d1">
    <inkscape:grid
       type="xygrid"
       id="grid835"
       visible="true"
       enabled="true"
       dotted="false"
       originx="0"
       originy="0"
       spacingy="1"
       spacingx="1"
       units="px" />
  </sodipodi:namedview>
  <metadata
     id="metadata5">
    <rdf:RDF>
      <cc:Work
         rdf:about="">
        <dc:format>image/svg+xml</dc:format>
        <dc:type
           rdf:resource="http://purl.org/dc/dcmitype/StillImage" />
        <dc:title />
      </cc:Work>
    </rdf:RDF>
  </metadata>
  <g
     inkscape:label="Шар 1"
     inkscape:groupmode="layer"
     id="layer1">
    <path
       id="rect18"
       style="fill:inherit;fill-rule:evenodd;stroke-width:0.188976;stop-color:inherit"
       d="M 11.884843 2.0004922 A 8.4999991 8.4999991 0 0 0 3.4990158 10.497048 A 8.4999991 8.4999991 0 0 0 6.2007876 16.690453 L 4.9975395 19.99754 L 4.9975395 21.998032 L 19.000985 21.998032 L 19.000985 19.99754 L 17.805119 16.712599 A 8.4999991 8.4999991 0 0 0 20.499508 10.497048 A 8.4999991 8.4999991 0 0 0 12.002953 2.0004922 A 8.4999991 8.4999991 0 0 0 11.884843 2.0004922 z M 12.002953 4.0009844 A 6.5000001 6.5000001 0 0 1 18.499016 10.497048 A 6.5000001 6.5000001 0 0 1 12.002953 17.000493 A 6.5000001 6.5000001 0 0 1 5.499508 10.497048 A 6.5000001 6.5000001 0 0 1 12.002953 4.0009844 z M 7.8912404 17.915847 A 8.4999991 8.4999991 0 0 0 12.002953 19.000985 A 8.4999991 8.4999991 0 0 0 16.114666 17.930611 L 16.867619 19.99754 L 7.1309057 19.99754 L 7.8912404 17.915847 z "
       transform="scale(0.26458333)" />
    <path
       id="path76"
       style="font-variation-settings:normal;opacity:1;vector-effect:none;fill:inherit;fill-opacity:1;fill-rule:evenodd;stroke-width:0.330729;stroke-linecap:butt;stroke-linejoin:miter;stroke-miterlimit:4;stroke-dasharray:none;stroke-dashoffset:0;stroke-opacity:1;stop-color:inherit;stop-opacity:1"
       d="m 3.175,1.5874999 -0.6872966,1.190625 h 0.1581299 v 1.37511 A 1.4733659,1.4733659 0 0 0 3.175,4.2514199 1.4733659,1.4733659 0 0 0 3.7041666,4.1527179 v -1.374593 h 0.1581298 z" />
    <path
       id="rect86"
       style="fill:#ffffff;fill-rule:evenodd;stroke:inherit;stroke-width:0.00141421;stop-color:inherit"
       d="M 3.1757813 2.9101563 A 0.26458332 0.26458332 0 0 0 2.9101563 3.1757813 L 2.9101563 3.7050782 L 3.4394532 3.7050782 L 3.4394532 3.1757813 A 0.26458332 0.26458332 0 0 0 3.1757813 2.9101563 z " />
    <circle
       style="font-variation-settings:normal;opacity:1;vector-effect:none;fill:inherit;fill-opacity:1;fill-rule:evenodd;stroke-width:0.330729;stroke-linecap:butt;stroke-linejoin:miter;stroke-miterlimit:4;stroke-dasharray:none;stroke-dashoffset:0;stroke-opacity:1;stop-color:inherit;stop-opacity:1"
       id="circle112"
       cx="4.2333331"
       cy="3.175"
       r="0.26458332" />
    <circle
       style="font-variation-settings:normal;opacity:1;vector-effect:none;fill:inherit;fill-opacity:1;fill-rule:evenodd;stroke-width:0.330729;stroke-linecap:butt;stroke-linejoin:miter;stroke-miterlimit:4;stroke-dasharray:none;stroke-dashoffset:0;stroke-opacity:1;stop-color:inherit;stop-opacity:1"
       id="circle114"
       cx="2.3812499"
       cy="1.8520833"
       r="0.26458332" />
    <circle
       style="font-variation-settings:normal;opacity:1;vector-effect:none;fill:inherit;fill-opacity:1;fill-rule:evenodd;stroke-width:0.330729;stroke-linecap:butt;stroke-linejoin:miter;stroke-miterlimit:4;stroke-dasharray:none;stroke-dashoffset:0;stroke-opacity:1;stop-color:inherit;stop-opacity:1"
       id="circle116"
       cx="2.1166668"
       cy="3.4395833"
       r="0.26458332" />
    <circle
       style="font-variation-settings:normal;opacity:1;vector-effect:none;fill:inherit;fill-opacity:1;fill-rule:evenodd;stroke-width:0.330729;stroke-linecap:butt;stroke-linejoin:miter;stroke-miterlimit:4;stroke-dasharray:none;stroke-dashoffset:0;stroke-opacity:1;stop-color:inherit;stop-opacity:1"
       id="circle118"
       cx="3.7041667"
       cy="1.5875"
       r="0.26458332" />
  </g>
</svg>
