<?xml version="1.0" encoding="UTF-8" standalone="no"?>
<svg
   xmlns:dc="http://purl.org/dc/elements/1.1/"
   xmlns:cc="http://creativecommons.org/ns#"
   xmlns:rdf="http://www.w3.org/1999/02/22-rdf-syntax-ns#"
   xmlns:svg="http://www.w3.org/2000/svg"
   xmlns="http://www.w3.org/2000/svg"
   xmlns:sodipodi="http://sodipodi.sourceforge.net/DTD/sodipodi-0.dtd"
   xmlns:inkscape="http://www.inkscape.org/namespaces/inkscape"
   width="24"
   height="24"
   viewBox="0 0 6.35 6.35"
   version="1.1"
   id="svg8"
   inkscape:version="1.0.1 (3bc2e813f5, 2020-09-07)"
   sodipodi:docname="Icon.svg">
  <defs
     id="defs2">
    <inkscape:path-effect
       effect="spiro"
       id="path-effect176"
       is_visible="true"
       lpeversion="1" />
    <inkscape:path-effect
       effect="spiro"
       id="path-effect916"
       is_visible="true"
       lpeversion="1" />
    <inkscape:path-effect
       effect="spiro"
       id="path-effect847"
       is_visible="true"
       lpeversion="1" />
    <inkscape:path-effect
       effect="spiro"
       id="path-effect843"
       is_visible="true"
       lpeversion="1" />
  </defs>
  <sodipodi:namedview
     id="base"
     pagecolor="#ffffff"
     bordercolor="#666666"
     borderopacity="1.0"
     inkscape:pageopacity="0.0"
     inkscape:pageshadow="2"
     inkscape:zoom="8.2036382"
     inkscape:cx="26.265796"
     inkscape:cy="9.766312"
     inkscape:document-units="mm"
     inkscape:current-layer="layer1"
     inkscape:document-rotation="0"
     showgrid="true"
     units="px"
     width="24mm"
     showguides="false"
     inkscape:snap-page="true"
     inkscape:snap-object-midpoints="true"
     inkscape:snap-center="true"
     inkscape:snap-midpoints="false"
     inkscape:snap-smooth-nodes="true"
     inkscape:snap-intersection-paths="true"
     inkscape:object-paths="true"
     inkscape:snap-grids="false"
     inkscape:object-nodes="true"
     inkscape:window-width="1920"
     inkscape:window-height="1137"
     inkscape:window-x="-8"
     inkscape:window-y="-8"
     inkscape:window-maximized="1"
     inkscape:snap-others="true"
     inkscape:snap-bbox="false"
     inkscape:bbox-paths="true"
     inkscape:bbox-nodes="true"
     inkscape:snap-bbox-edge-midpoints="true"
     inkscape:snap-bbox-midpoints="true"
     inkscape:snap-global="true"
     inkscape:snap-text-baseline="false">
    <inkscape:grid
       type="xygrid"
       id="grid835"
       visible="true"
       enabled="false" />
  </sodipodi:namedview>
  <metadata
     id="metadata5">
    <rdf:RDF>
      <cc:Work
         rdf:about="">
        <dc:format>image/svg+xml</dc:format>
        <dc:type
           rdf:resource="http://purl.org/dc/dcmitype/StillImage" />
        <dc:title></dc:title>
      </cc:Work>
    </rdf:RDF>
  </metadata>
  <g
     inkscape:label="Шар 1"
     inkscape:groupmode="layer"
     id="layer1">
    <path
       id="rect30"
       style="fill:inherit;fill-rule:evenodd;stroke-width:0.0559017;stop-color:inherit"
       d="m 1.0583333,3.7041666 c -0.29315839,0 -0.52916664,0.2360084 -0.52916664,0.5291667 v 0.79375 c 0,0.2931583 0.23600825,0.5291666 0.52916664,0.5291666 h 2.9104166 c 0.2931584,0 0.5291667,-0.2360083 0.5291667,-0.5291666 v -0.79375 c 0,-0.2931583 -0.2360083,-0.5291667 -0.5291667,-0.5291667 z m 0.2645833,0.5291667 h 2.38125 c 0.1465792,0 0.2645833,0.1180041 0.2645833,0.2645833 v 0.2645833 c 0,0.1465792 -0.1180041,0.2645834 -0.2645833,0.2645834 h -2.38125 c -0.1465791,0 -0.2645833,-0.1180042 -0.2645833,-0.2645834 V 4.4979166 c 0,-0.1465792 0.1180042,-0.2645833 0.2645833,-0.2645833 z" />
    <path
       id="rect19"
       style="fill:inherit;fill-rule:evenodd;stroke-width:0.35433;stop-color:inherit"
       inkscape:transform-center-x="0.061241933"
       inkscape:transform-center-y="1.5609251"
       d="M 11.814453 2.9511719 C 11.173542 2.9786776 10.557569 3.3160576 10.195312 3.90625 L 4.6328125 12.964844 L 4.4414062 13.279297 L 3.5585938 14.720703 L 5.8867188 14.751953 L 6.1464844 14.326172 L 6.6113281 13.568359 L 6.6699219 13.474609 L 6.9609375 12.998047 L 7.1933594 12.621094 L 10.855469 6.65625 L 11.376953 5.8027344 C 11.666754 5.3305826 12.279799 5.1848062 12.751953 5.4746094 L 13.603516 5.9980469 L 16.037109 7.4921875 A 3.4999991 3.4999991 0 0 1 16.892578 5.6679688 L 12.947266 3.2460938 C 12.593164 3.0287383 12.199 2.934668 11.814453 2.9511719 z "
       transform="scale(0.26458333)" />
    <path
       id="path120"
       style="fill:inherit;fill-rule:evenodd;stroke-width:0.35433;stop-color:inherit"
       d="M 16.115234 7.1152344 L 12.132812 9.9042969 C 11.225192 10.539818 11.007055 11.781832 11.642578 12.689453 L 13.361328 15.146484 L 15 14 L 14.425781 13.181641 L 13.853516 12.361328 C 13.535755 11.907516 13.6458 11.288464 14.099609 10.970703 L 14.917969 10.396484 L 16.304688 9.4257812 A 3.4999991 3.4999991 0 0 1 16 8 A 3.4999991 3.4999991 0 0 1 16.115234 7.1152344 z "
       transform="scale(0.26458333)" />
    <circle
       style="font-variation-settings:normal;opacity:1;vector-effect:none;fill:inherit;fill-opacity:1;fill-rule:evenodd;stroke-width:0.413411;stroke-linecap:butt;stroke-linejoin:miter;stroke-miterlimit:4;stroke-dasharray:none;stroke-dashoffset:0;stroke-opacity:1;stop-color:inherit;stop-opacity:1"
       id="circle164"
       cx="5.1593752"
       cy="2.1166666"
       r="0.66145825" />
  </g>
</svg>
