<?xml version="1.0" encoding="UTF-8" standalone="no"?>
<svg
   viewBox="0 0 6.35 6.35"
   version="1.1"
   id="svg8"
   inkscape:version="1.3.2 (091e20ef0f, 2023-11-25)"
   sodipodi:docname="zeppelin.svg"
   xmlns:inkscape="http://www.inkscape.org/namespaces/inkscape"
   xmlns:sodipodi="http://sodipodi.sourceforge.net/DTD/sodipodi-0.dtd"
   xmlns="http://www.w3.org/2000/svg"
   xmlns:svg="http://www.w3.org/2000/svg"
   xmlns:rdf="http://www.w3.org/1999/02/22-rdf-syntax-ns#"
   xmlns:cc="http://creativecommons.org/ns#"
   xmlns:dc="http://purl.org/dc/elements/1.1/">
  <defs
     id="defs2">
    <inkscape:path-effect
       effect="spiro"
       id="path-effect927"
       is_visible="true"
       lpeversion="1" />
    <inkscape:path-effect
       effect="spiro"
       id="path-effect898"
       is_visible="true"
       lpeversion="1" />
    <inkscape:path-effect
       effect="spiro"
       id="path-effect886"
       is_visible="true"
       lpeversion="1" />
    <inkscape:path-effect
       effect="spiro"
       id="path-effect882"
       is_visible="true"
       lpeversion="1" />
    <inkscape:path-effect
       effect="spiro"
       id="path-effect871"
       is_visible="true"
       lpeversion="1" />
    <inkscape:path-effect
       effect="spiro"
       id="path-effect867"
       is_visible="true"
       lpeversion="1" />
    <inkscape:path-effect
       effect="spiro"
       id="path-effect859"
       is_visible="true"
       lpeversion="1" />
    <inkscape:path-effect
       effect="spiro"
       id="path-effect853"
       is_visible="true"
       lpeversion="1" />
    <inkscape:path-effect
       effect="spiro"
       id="path-effect24"
       is_visible="true"
       lpeversion="1" />
    <inkscape:path-effect
       effect="spiro"
       id="path-effect916"
       is_visible="true"
       lpeversion="1" />
    <inkscape:path-effect
       effect="spiro"
       id="path-effect847"
       is_visible="true"
       lpeversion="1" />
    <inkscape:path-effect
       effect="spiro"
       id="path-effect843"
       is_visible="true"
       lpeversion="1" />
  </defs>
  <sodipodi:namedview
     id="base"
     pagecolor="#ffffff"
     bordercolor="#666666"
     borderopacity="1.0"
     inkscape:pageopacity="0.0"
     inkscape:pageshadow="2"
     inkscape:zoom="84.738303"
     inkscape:cx="4.9151327"
     inkscape:cy="1.9530719"
     inkscape:document-units="mm"
     inkscape:current-layer="layer1"
     inkscape:document-rotation="0"
     showgrid="true"
     units="px"
     width="24mm"
     showguides="false"
     inkscape:snap-page="true"
     inkscape:snap-object-midpoints="true"
     inkscape:snap-center="true"
     inkscape:snap-midpoints="false"
     inkscape:snap-smooth-nodes="true"
     inkscape:snap-intersection-paths="true"
     inkscape:object-paths="true"
     inkscape:snap-grids="true"
     inkscape:object-nodes="true"
     inkscape:window-width="1896"
     inkscape:window-height="1152"
     inkscape:window-x="1032"
     inkscape:window-y="8"
     inkscape:window-maximized="1"
     inkscape:snap-others="false"
     inkscape:snap-bbox="false"
     inkscape:bbox-paths="true"
     inkscape:bbox-nodes="true"
     inkscape:snap-nodes="true"
     inkscape:snap-bbox-edge-midpoints="true"
     inkscape:snap-bbox-midpoints="true"
     inkscape:snap-tangential="true"
     inkscape:snap-to-guides="true"
     inkscape:showpageshadow="2"
     inkscape:pagecheckerboard="0"
     inkscape:deskcolor="#d1d1d1">
    <inkscape:grid
       type="xygrid"
       id="grid835"
       visible="true"
       enabled="true"
       dotted="false"
       originx="0"
       originy="0"
       spacingy="1"
       spacingx="1"
       units="px" />
  </sodipodi:namedview>
  <metadata
     id="metadata5">
    <rdf:RDF>
      <cc:Work
         rdf:about="">
        <dc:format>image/svg+xml</dc:format>
        <dc:type
           rdf:resource="http://purl.org/dc/dcmitype/StillImage" />
        <dc:title />
      </cc:Work>
    </rdf:RDF>
  </metadata>
  <g
     inkscape:label="Шар 1"
     inkscape:groupmode="layer"
     id="layer1">
    <path
       id="path856"
       style="font-variation-settings:normal;opacity:1;vector-effect:none;fill:inherit;fill-opacity:1;fill-rule:evenodd;stroke-width:1.18421;stroke-linecap:butt;stroke-linejoin:miter;stroke-miterlimit:4;stroke-dasharray:none;stroke-dashoffset:0;stroke-opacity:1;stop-color:inherit;stop-opacity:1"
       d="M 13 6.5 A 9.0000002 4.5000002 0 0 0 5.453125 8.5488281 L 4.8671875 8.9648438 L 4.3105469 8 L 2 8 L 3.2285156 10.128906 L 2 11 L 3.2285156 11.871094 L 2 14 L 4.3105469 14 L 4.8671875 13.035156 L 5.453125 13.451172 A 9.0000002 4.5000002 0 0 0 9.1933594 15.078125 L 10 17.5 L 15 17.5 L 15.738281 15.285156 A 9.0000002 4.5000002 0 0 0 22 11 A 9.0000002 4.5000002 0 0 0 13 6.5 z M 12.878906 8.5 A 6.9999997 2.5000001 0 0 1 13 8.5 A 6.9999997 2.5000001 0 0 1 20 11 A 6.9999997 2.5000001 0 0 1 13 13.5 A 6.9999997 2.5000001 0 0 1 7.0820312 12.333984 L 7.0097656 12.292969 A 6.9999997 2.5000001 0 0 1 6.9453125 12.253906 L 6.8808594 12.214844 L 5.7285156 11.541016 L 5.7324219 11.535156 L 4.8046875 11 L 5.7324219 10.464844 L 5.7285156 10.458984 L 6.9023438 9.7714844 A 6.9999997 2.5000001 0 0 1 7.0820312 9.6660156 A 6.9999997 2.5000001 0 0 1 12.878906 8.5 z "
       transform="scale(0.26458333)" />
    <path
       id="path943"
       style="font-variation-settings:normal;opacity:1;vector-effect:none;fill:inherit;fill-opacity:1;fill-rule:evenodd;stroke-width:0.330729;stroke-linecap:butt;stroke-linejoin:miter;stroke-miterlimit:4;stroke-dasharray:none;stroke-dashoffset:0;stroke-opacity:1;stop-color:inherit;stop-opacity:1"
       d="M 5.0273438 0.52929688 A 0.39687499 0.39687499 0 0 0 4.6308594 0.92578126 A 0.39687499 0.39687499 0 0 0 5.0273438 1.3222656 L 5.5566407 1.3222656 A 0.26458332 0.26458332 0 0 0 5.8203126 1.0585938 A 0.26458332 0.26458332 0 0 0 5.5566407 0.79296876 A 0.26458332 0.26458332 0 0 0 5.4140626 0.83593751 A 0.39687499 0.39687499 0 0 0 5.0273438 0.52929688 z " />
    <path
       id="circle951"
       style="font-variation-settings:normal;opacity:1;vector-effect:none;fill:inherit;fill-opacity:1;fill-rule:evenodd;stroke-width:0.330729;stroke-linecap:butt;stroke-linejoin:miter;stroke-miterlimit:4;stroke-dasharray:none;stroke-dashoffset:0;stroke-opacity:1;stop-color:inherit;stop-opacity:1"
       d="M 0.92578126 5.0273438 A 0.39687499 0.39687499 0 0 0 0.52929688 5.4238282 A 0.39687499 0.39687499 0 0 0 0.92578126 5.8203126 L 1.4550781 5.8203126 A 0.26458332 0.26458332 0 0 0 1.7207032 5.5566407 A 0.26458332 0.26458332 0 0 0 1.4550781 5.2910157 A 0.26458332 0.26458332 0 0 0 1.3125 5.3339845 A 0.39687499 0.39687499 0 0 0 0.92578126 5.0273438 z " />
  </g>
</svg>
